<svg xmlns="http://www.w3.org/2000/svg" viewBox="0 0 390.378 368.107">
  <g id="brain_drawing" data-name="brain drawing" transform="translate(-679 -4395)">
    <path id="Subtraction_1" data-name="Subtraction 1" d="M123.676,357.108a53.649,53.649,0,0,1-53.5-49.2A72.893,72.893,0,0,1,32.418,234.35a73.118,73.118,0,0,1-23.539-25.7,72.7,72.7,0,0,1,9.863-83.616,73.239,73.239,0,0,1,13.073-11.412,72.772,72.772,0,0,1,38.3-63.595A53.662,53.662,0,0,1,153.692,9.169a53.845,53.845,0,0,1,19.451,23.62,53.351,53.351,0,0,1,4.219,20.9,54.19,54.19,0,0,1-.89,9.785v39.248c.168,1.07.315,2.16.436,3.242a33.027,33.027,0,0,0-.436,60.695v65.7a73.6,73.6,0,0,1,.89,11.413c0,1.387-.04,2.79-.118,4.171a27.447,27.447,0,0,0-.3,48.768,54.44,54.44,0,0,1,.416,6.711,53.431,53.431,0,0,1-9.169,30.016,53.842,53.842,0,0,1-23.62,19.45A53.349,53.349,0,0,1,123.676,357.108Z" transform="translate(684.5 4400.5)" fill="none" stroke="#fff" stroke-linecap="round" stroke-width="11"/>
    <path id="Subtraction_2" data-name="Subtraction 2" d="M53.686,357.108a53.434,53.434,0,0,1-30.016-9.169,53.843,53.843,0,0,1-19.451-23.62A53.349,53.349,0,0,1,0,303.422a54.452,54.452,0,0,1,.415-6.711,27.553,27.553,0,0,0,10.625-9.917,27.377,27.377,0,0,0,4.072-14.39,27.366,27.366,0,0,0-4.16-14.532A27.539,27.539,0,0,0,.118,247.943C.039,246.56,0,245.157,0,243.772a73.638,73.638,0,0,1,.89-11.413v-65.7A32.989,32.989,0,0,0,8.9,161.68a33.159,33.159,0,0,0,6.257-6.99A32.856,32.856,0,0,0,20.679,136.4a32.838,32.838,0,0,0-5.657-18.484,33.159,33.159,0,0,0-6.4-7.02A32.973,32.973,0,0,0,.454,105.96c.121-1.086.268-2.176.436-3.242V63.471A54.157,54.157,0,0,1,0,53.686,53.434,53.434,0,0,1,9.169,23.669a53.842,53.842,0,0,1,23.62-19.45,53.745,53.745,0,0,1,69.293,26.2,53.219,53.219,0,0,1,5.167,19.6,72.667,72.667,0,0,1,38.3,63.595,73.133,73.133,0,0,1,23.11,25.618,72.7,72.7,0,0,1-10.4,83.7,73.21,73.21,0,0,1-13.311,11.416,73.842,73.842,0,0,1,.6,9.421,72.759,72.759,0,0,1-38.361,64.14,53.689,53.689,0,0,1-53.5,49.2Z" transform="translate(886.516 4400.5)" fill="none" stroke="#fff" stroke-linecap="round" stroke-width="11"/>
    <g id="Group_17" data-name="Group 17" transform="translate(916.666 4443.133)">
      <path id="Path_7" data-name="Path 7" d="M3169.986,4540.149s30.619-13.646,35.991,5.614-25.414,43.663,0,60.341" transform="translate(-3146.46 -4470.755)" fill="none" stroke="#fff" stroke-linecap="round" stroke-width="11"/>
      <path id="Path_8" data-name="Path 8" d="M3263.852,4544.167s-23.983-13.292-53.263,0" transform="translate(-3146.817 -4471.328)" fill="none" stroke="#fff" stroke-linecap="round" stroke-width="11"/>
      <path id="Path_9" data-name="Path 9" d="M3142.1,4477.618c-7.436-8.211,11.071-35.765,28.315-17.224" transform="translate(-3140.407 -4454.104)" fill="none" stroke="#fff" stroke-linecap="round" stroke-width="11"/>
      <path id="Path_12" data-name="Path 12" d="M28.316,0C35.751,8.208,17.244,35.762,0,17.223" transform="matrix(0.848, 0.53, -0.53, 0.848, 12.486, 249.141)" fill="none" stroke="#fff" stroke-linecap="round" stroke-width="11"/>
      <path id="Path_13" data-name="Path 13" d="M28.316,0C35.751,8.208,17.244,35.762,0,17.223" transform="translate(72.425 141.693) rotate(-56)" fill="none" stroke="#fff" stroke-linecap="round" stroke-width="11"/>
      <path id="Path_10" data-name="Path 10" d="M3140.407,4668.323s32.878-14.588,33.543,19.686c.084,2.1-12.4,24.892,9.437,33.255" transform="translate(-3140.407 -4497.314)" fill="none" stroke="#fff" stroke-linecap="round" stroke-width="11"/>
      <path id="Path_11" data-name="Path 11" d="M3178.133,4698.682s10.993-11.633,25.351-4.709" transform="translate(-3144.947 -4502.745)" fill="none" stroke="#fff" stroke-linecap="round" stroke-width="11"/>
      <path id="Path_14" data-name="Path 14" d="M3282.306,4691.772a74.237,74.237,0,0,1-28.366,7.2" transform="translate(-3163.642 -4502.744)" fill="none" stroke="#fff" stroke-linecap="round" stroke-width="11"/>
    </g>
    <g id="Group_18" data-name="Group 18" transform="translate(713.853 4443.133)">
      <path id="Path_7-2" data-name="Path 7" d="M3206.621,4540.149s-30.618-13.646-35.99,5.614,25.413,43.663,0,60.341" transform="translate(-3111.483 -4470.755)" fill="none" stroke="#fff" stroke-linecap="round" stroke-width="11"/>
      <path id="Path_8-2" data-name="Path 8" d="M3210.589,4544.167s23.984-13.292,53.264,0" transform="translate(-3208.961 -4471.328)" fill="none" stroke="#fff" stroke-linecap="round" stroke-width="11"/>
      <path id="Path_9-2" data-name="Path 9" d="M3168.723,4477.618c7.435-8.211-11.072-35.765-28.317-17.224" transform="translate(-3051.747 -4454.104)" fill="none" stroke="#fff" stroke-linecap="round" stroke-width="11"/>
      <path id="Path_12-2" data-name="Path 12" d="M28.316,23.512C35.751,15.3,17.245-12.251,0,6.289" transform="matrix(-0.848, 0.53, -0.53, -0.848, 118.638, 269.08)" fill="none" stroke="#fff" stroke-linecap="round" stroke-width="11"/>
      <path id="Path_13-2" data-name="Path 13" d="M28.316,23.512C35.751,15.3,17.245-12.251,0,6.289" transform="translate(26.748 154.84) rotate(-124)" fill="none" stroke="#fff" stroke-linecap="round" stroke-width="11"/>
      <path id="Path_10-2" data-name="Path 10" d="M3183.388,4668.323s-32.88-14.588-33.542,19.686c-.085,2.1,12.4,24.892-9.439,33.255" transform="translate(-3064.722 -4497.314)" fill="none" stroke="#fff" stroke-linecap="round" stroke-width="11"/>
      <path id="Path_11-2" data-name="Path 11" d="M3203.484,4698.682s-10.992-11.633-25.352-4.709" transform="translate(-3118.007 -4502.745)" fill="none" stroke="#fff" stroke-linecap="round" stroke-width="11"/>
      <path id="Path_14-2" data-name="Path 14" d="M3253.94,4691.772a74.248,74.248,0,0,0,28.367,7.2" transform="translate(-3253.94 -4502.744)" fill="none" stroke="#fff" stroke-linecap="round" stroke-width="11"/>
    </g>
  </g>
</svg>
