<svg xmlns="http://www.w3.org/2000/svg" viewBox="0 0 468.55 278.28"><defs><style>.cls-1{fill:none;stroke:#fff;stroke-miterlimit:10;stroke-width:6px;}</style></defs><title>bridge</title><g id="Layer_2" data-name="Layer 2"><g id="Layer_2-2" data-name="Layer 2"><path class="cls-1" d="M417.66,186.75V126.37a289.79,289.79,0,0,1,30.26,47.84c7.66-9.57,9.82-14.31,7.88-21.91C440.78,93.41,347.64.72,235.54,3,108.87,5.65,10.11,107,4.4,158c-.77,6.89,6.19,12,11.24,16.22a241.17,241.17,0,0,1,23.25-42.82v70A384.38,384.38,0,0,0,4.34,270.91l115.68.94c5.82-77.89,55.27-137.59,113.06-137.27,56.87.32,105.47,64.06,112,140.59,42.2-.39,76.93.38,119.13,0C451.51,242.38,435.82,212.63,417.66,186.75ZM57.44,175V107.57A240.52,240.52,0,0,1,88,78.58v62.6A300.79,300.79,0,0,0,57.44,175Zm49.13-49.85V66.22c0-.33,0-.66,0-1a238,238,0,0,1,33.92-18.33v55.85A239.91,239.91,0,0,0,106.57,125.13ZM159,93.78V39.64a234.2,234.2,0,0,1,35.44-9.15V82.4A200.3,200.3,0,0,0,159,93.78Zm54-14.51V28q10.47-1,21.13-1,6.79,0,13.53.45v51Q241.27,78,234.81,78A184.28,184.28,0,0,0,213,79.27Zm53.22,1.4v-51a202.52,202.52,0,0,1,34.71,9.2,8.93,8.93,0,0,0-.06,1V90.19A188.9,188.9,0,0,0,266.21,80.67Zm53.21,17.65V46.45a244.22,244.22,0,0,1,31.66,17.76v53.4A223.86,223.86,0,0,0,319.42,98.32Zm50.21,34.17V77.7a281.3,281.3,0,0,1,29.48,27.07v57.9A288.83,288.83,0,0,0,369.63,132.49Z"/></g></g></svg>