<svg xmlns="http://www.w3.org/2000/svg" width="305.707" height="180.69" viewBox="0 0 305.707 180.69">
  <path id="mail" d="M281.207,180.69H24.5A24.48,24.48,0,0,1,0,156.19V24.5A24.432,24.432,0,0,1,8.951,5.566L146.089,141.46c2.533,2.072,4.741,3.08,6.752,3.08,2.1,0,3.762-1.053,5.521-2.169.48-.3.976-.619,1.483-.911,3.722-2.15,123.1-122.368,136.7-136.069a24.738,24.738,0,0,1,6.678,8.341A24.264,24.264,0,0,1,305.707,24.5V156.19a24.479,24.479,0,0,1-24.5,24.5ZM154.217,118.012h0L35.3,0H271.329L154.218,118.012Z" fill="#fff"/>
</svg>
