<svg xmlns="http://www.w3.org/2000/svg" width="1469.805" height="1469.805" viewBox="0 0 1469.805 1469.805">
  <g id="Group_48" data-name="Group 48" transform="translate(-60.5 -1612)">
    <g id="Group_40" data-name="Group 40" transform="translate(427.762 1971.787)">
      <ellipse id="Ellipse_21" data-name="Ellipse 21" cx="33.268" cy="35.645" rx="33.268" ry="35.645" transform="translate(0 0)" fill="#f6e5e6"/>
      <g id="Path_28" data-name="Path 28" transform="translate(213.208 175.343) rotate(180)" fill="#f6e5e6">
        <path d="M 1.821686983108521 58.34889602661133 C 1.959945440292358 57.7170524597168 2.108909130096436 57.08761215209961 2.268644332885742 56.46043014526367 C 3.412731170654297 51.96825408935547 5.120165824890137 47.54910278320312 7.343470096588135 43.32573318481445 C 9.527709007263184 39.17658233642578 12.23170948028564 35.17412567138672 15.38033962249756 31.42953681945801 C 18.50099182128906 27.7182559967041 22.08538246154785 24.22786331176758 26.03399276733398 21.05534172058105 C 29.98457908630371 17.88121223449707 34.33214569091797 14.99921131134033 38.95592498779297 12.48940753936768 C 43.62575149536133 9.954581260681152 48.61840438842773 7.777341842651367 53.795166015625 6.018103122711182 C 64.56968688964844 2.35655951499939 76.01608276367188 0.4999942183494568 87.81638336181641 0.4999942183494568 C 99.61668395996094 0.4999942183494568 111.0630798339844 2.35655951499939 121.8376007080078 6.018103122711182 C 127.0143585205078 7.777341842651367 132.0070190429688 9.954581260681152 136.6768341064453 12.48940753936768 C 141.3006286621094 14.99921131134033 145.648193359375 17.88121223449707 149.5987701416016 21.05534172058105 C 153.5473785400391 24.22786331176758 157.1317749023438 27.7182559967041 160.2524261474609 31.42953681945801 C 163.4010620117188 35.17412567138672 166.1050567626953 39.17658233642578 168.2892913818359 43.32573318481445 C 170.5126037597656 47.54910278320312 172.2200317382812 51.96825408935547 173.3641204833984 56.46043014526367 C 173.4004364013672 56.60302352905273 173.4362640380859 56.7459831237793 173.4714660644531 56.88882827758789 C 172.1836395263672 53.01886749267578 170.44384765625 49.19914245605469 168.2936248779297 45.52240753173828 C 166.0160522460938 41.6279296875 163.2599487304688 37.86279678344727 160.1018676757812 34.33162307739258 C 156.9426422119141 30.79919052124023 153.3570861816406 27.47397232055664 149.4447479248047 24.44834136962891 C 132.7849884033203 11.56432056427002 110.8982772827148 4.468776702880859 87.81638336181641 4.468776702880859 C 75.86727142333984 4.468776702880859 64.4927978515625 6.106168270111084 54.00888442993164 9.335472106933594 C 43.80390548706055 12.47888565063477 34.65351486206055 17.06064605712891 26.81190490722656 22.95351600646973 C 18.99040603637695 28.83125495910645 12.67262268066406 35.86075592041016 8.034078598022461 43.84673309326172 C 5.366349697113037 48.43964767456055 3.290715217590332 53.28884124755859 1.821686983108521 58.34889602661133 Z" stroke="none"/>
        <path d="M 87.81638336181641 1 C 76.07090759277344 1 64.67865753173828 2.847618103027344 53.95603942871094 6.491500854492188 C 48.80599975585938 8.241661071777344 43.83949279785156 10.40750122070312 39.1944580078125 12.9288444519043 C 34.596923828125 15.42441177368164 30.27447509765625 18.2896842956543 26.34715270996094 21.44511413574219 C 22.42381286621094 24.59734344482422 18.86280822753906 28.06484222412109 15.76304626464844 31.75131988525391 C 13.38505554199219 34.57939910888672 11.26258850097656 37.55554962158203 9.428802490234375 40.63060760498047 C 13.8848876953125 33.80336761474609 19.61871337890625 27.7336311340332 26.51152038574219 22.55379867553711 C 34.39942932128906 16.62613677978516 43.60136413574219 12.01807022094727 53.86170196533203 8.857639312744141 C 64.39331817626953 5.613616943359375 75.81733703613281 3.968772888183594 87.81638336181641 3.968772888183594 C 99.68513488769531 3.968772888183594 111.1947708129883 5.80413818359375 122.0255661010742 9.423866271972656 C 127.1757049560547 11.14509201049805 132.1599731445312 13.27484130859375 136.8399047851562 15.75395584106445 C 141.4313354492188 18.18616104125977 145.7751312255859 20.97829818725586 149.7506408691406 24.05282211303711 C 153.68701171875 27.0970458984375 157.2950592041016 30.44320678710938 160.4745635986328 33.99832153320312 C 163.6238250732422 37.51963806152344 166.3767242431641 41.27294540405273 168.6580505371094 45.1553840637207 C 168.3958892822266 44.6202392578125 168.1254272460938 44.08785247802734 167.8468322753906 43.55863952636719 C 165.6792449951172 39.44111633300781 162.995361328125 35.46854782104492 159.8697204589844 31.75131988525391 C 156.7699584960938 28.06484222412109 153.2089538574219 24.59734344482422 149.2856140136719 21.44511413574219 C 145.3582916259766 18.2896842956543 141.0358428955078 15.42441177368164 136.4383239746094 12.9288444519043 C 131.7932739257812 10.40750122070312 126.8267669677734 8.241661071777344 121.6767272949219 6.491500854492188 C 110.9541091918945 2.847618103027344 99.56185913085938 1 87.81638336181641 1 M 87.81638336181641 0 C 136.3160400390625 0 175.6327667236328 31.58927536010742 175.6327667236328 70.556640625 C 173.5712432861328 36.10636520385742 136.3160400390625 4.968772888183594 87.81638336181641 4.968772888183594 C 39.31672668457031 4.968772888183594 3.710540771484375 32.13134384155273 0 70.556640625 C 0 31.58927536010742 39.31672668457031 0 87.81638336181641 0 Z" stroke="none" fill="#f6e5e6"/>
      </g>
      <ellipse id="Ellipse_22" data-name="Ellipse 22" cx="33.268" cy="35.645" rx="33.268" ry="35.645" transform="translate(190.104 0)" fill="#f6e5e6"/>
    </g>
    <g id="Ellipse_38" data-name="Ellipse 38" transform="translate(60.5 1612)" fill="none" stroke="#fee4e5" stroke-width="1">
      <circle cx="734.902" cy="734.902" r="734.902" stroke="none"/>
      <circle cx="734.902" cy="734.902" r="734.402" fill="none"/>
    </g>
  </g>
</svg>
