<svg xmlns="http://www.w3.org/2000/svg" width="223" height="375" viewBox="0 0 223 375">
  <g id="iphone" fill="#fff">
    <path d="M 178.0001983642578 374.5003051757812 L 45 374.5003051757812 C 38.99189758300781 374.5003051757812 33.16394805908203 373.3238525390625 27.67804908752441 371.0036926269531 C 22.37874984741211 368.7616577148438 17.61969947814941 365.5527954101562 13.53314876556396 361.4662475585938 C 9.446249008178711 357.3793029785156 6.237648963928223 352.6203002929688 3.996599197387695 347.3213500976562 C 1.676449179649353 341.8355102539062 0.4999991953372955 336.0079040527344 0.4999991953372955 330.0003051757812 L 0.4999991953372955 45.00000381469727 C 0.4999991953372955 38.99245071411133 1.676449179649353 33.16485214233398 3.996599197387695 27.67895317077637 C 6.237648963928223 22.38010215759277 9.446199417114258 17.62105178833008 13.53314876556396 13.53405284881592 C 17.61969947814941 9.447502136230469 22.37874984741211 6.23865270614624 27.67809867858887 3.996602535247803 C 33.16394805908203 1.67645263671875 38.99189758300781 0.5000025629997253 45 0.5000025629997253 L 178.0001983642578 0.5000025629997253 C 184.0077972412109 0.5000025629997253 189.8354034423828 1.67645263671875 195.3212432861328 3.996602535247803 C 200.6205444335938 6.23865270614624 205.3796539306641 9.447552680969238 209.4661560058594 13.53405284881592 C 213.5532531738281 17.62120246887207 216.7618560791016 22.38025283813477 219.0027465820312 27.67895317077637 C 221.3235015869141 33.1640510559082 222.5001983642578 38.99165344238281 222.5001983642578 45.00000381469727 L 222.5001983642578 330.0003051757812 C 222.5001983642578 336.0086669921875 221.3235015869141 341.8362426757812 219.0027465820312 347.3212585449219 C 216.7617950439453 352.6201477050781 213.5532531738281 357.379150390625 209.4661560058594 361.4662475585938 C 205.3795471191406 365.5528564453125 200.6204986572266 368.7616882324219 195.3211975097656 371.0036926269531 C 189.8354034423828 373.3238525390625 184.0077972412109 374.5003051757812 178.0001983642578 374.5003051757812 Z M 111.5000991821289 328.2502136230469 C 107.685546875 328.2502136230469 104.099250793457 329.7323608398438 101.4019012451172 332.4236145019531 C 98.70414733886719 335.1151123046875 97.21839904785156 338.6937561035156 97.21839904785156 342.5003662109375 C 97.21839904785156 346.3067016601562 98.70414733886719 349.8851013183594 101.4019012451172 352.5764465332031 C 104.0993957519531 355.2676086425781 107.6856460571289 356.7496948242188 111.5000991821289 356.7496948242188 C 115.3142013549805 356.7496948242188 118.9001998901367 355.2676086425781 121.5974960327148 352.5764465332031 C 124.2951965332031 349.8851623535156 125.7808990478516 346.3067016601562 125.7808990478516 342.5003662109375 C 125.7808990478516 338.6937561035156 124.2951965332031 335.1151123046875 121.5974960327148 332.4236145019531 C 118.9002456665039 329.7323608398438 115.3142471313477 328.2502136230469 111.5000991821289 328.2502136230469 Z M 44.54999923706055 22.00000190734863 C 41.51234817504883 22.00000190734863 38.56559753417969 22.59500312805176 35.79169845581055 23.76845169067383 C 33.11309814453125 24.90120315551758 30.70685005187988 26.52360343933105 28.63994979858398 28.59045219421387 C 26.57494926452637 30.65460205078125 24.95284843444824 33.06050109863281 23.81884956359863 35.74130249023438 C 22.64539909362793 38.51505279541016 22.05039978027344 41.4618034362793 22.05039978027344 44.49960327148438 L 22.05039978027344 296.7498474121094 C 22.05039978027344 299.7885437011719 22.64539909362793 302.7352905273438 23.81889915466309 305.5081481933594 C 24.95195007324219 308.1877136230469 26.57399940490723 310.5939636230469 28.63994979858398 312.6598510742188 C 30.70689964294434 314.7268676757812 33.1131477355957 316.3492126464844 35.791748046875 317.4819030761719 C 38.56554794311523 318.6553039550781 41.51224899291992 319.2503051757812 44.54999923706055 319.2503051757812 L 179.7021026611328 319.2503051757812 C 182.7398986816406 319.2503051757812 185.6865997314453 318.6553039550781 188.4604034423828 317.4819030761719 C 191.1389465332031 316.3492126464844 193.5451965332031 314.7268676757812 195.6121520996094 312.6598510742188 C 197.6790466308594 310.5929565429688 199.3013916015625 308.186767578125 200.4342041015625 305.508056640625 C 201.6076507568359 302.7328491210938 202.2026062011719 299.7861633300781 202.2026062011719 296.7498474121094 L 202.2026062011719 44.49960327148438 C 202.2026062011719 41.46415328979492 201.6076507568359 38.51750183105469 200.4342498779297 35.74145126342773 C 199.3005523681641 33.06150436401367 197.6781463623047 30.65560340881348 195.6121063232422 28.59035301208496 C 193.5452423095703 26.52360343933105 191.1389923095703 24.90120315551758 188.4603424072266 23.76845169067383 C 185.6864929199219 22.59500312805176 182.73974609375 22.00000190734863 179.7021026611328 22.00000190734863 L 44.54999923706055 22.00000190734863 Z" stroke="none"/>
    <path d="M 178.0001983642578 374.0003051757812 C 183.9405059814453 374.0003051757812 189.7026062011719 372.837158203125 195.1263427734375 370.5432434082031 C 200.3661041259766 368.3264465332031 205.0717468261719 365.153564453125 209.1125946044922 361.1127014160156 C 213.1539001464844 357.0714111328125 216.3264923095703 352.3657531738281 218.5422973632812 347.12646484375 C 220.8367919921875 341.7033996582031 222.0001983642578 335.9413452148438 222.0001983642578 330.0003051757812 L 222.0001983642578 45.00000381469727 C 222.0001983642578 39.05895233154297 220.8367919921875 33.29690170288086 218.5422515869141 27.87370300292969 C 216.3265533447266 22.63460350036621 213.1539459228516 17.92900276184082 209.1125946044922 13.88760280609131 C 205.0717926025391 9.84685230255127 200.3661499023438 6.673952579498291 195.1264495849609 4.45710277557373 C 189.7026062011719 2.163152694702148 183.9405059814453 1.00000262260437 178.0001983642578 1.00000262260437 L 45 1.00000262260437 C 39.05915069580078 1.00000262260437 33.29674911499023 2.163152694702148 27.87294960021973 4.457052707672119 C 22.63315010070801 6.673952579498291 17.92749977111816 9.846802711486816 13.88669872283936 13.88760280609131 C 9.845499038696289 17.92885208129883 6.672949314117432 22.63445281982422 4.457098960876465 27.87375259399414 C 2.163149118423462 33.29765319824219 0.9999991655349731 39.05975341796875 0.9999991655349731 45.00000381469727 L 0.9999991655349731 330.0003051757812 C 0.9999991655349731 335.9406127929688 2.163149118423462 341.7026977539062 4.457098960876465 347.1266174316406 C 6.672949314117432 352.3659057617188 9.845549583435059 357.0715637207031 13.88669872283936 361.1127014160156 C 17.92749977111816 365.1535034179688 22.63315010070801 368.3263549804688 27.87284851074219 370.543212890625 C 33.29674911499023 372.837158203125 39.05915069580078 374.0003051757812 45 374.0003051757812 L 178.0001983642578 374.0003051757812 M 111.5000991821289 327.7502136230469 C 115.4476013183594 327.7502136230469 119.1589965820312 329.2842102050781 121.9506454467773 332.0696411132812 C 124.743049621582 334.8555908203125 126.2808990478516 338.5599670410156 126.2808990478516 342.5003662109375 C 126.2808990478516 346.4404602050781 124.743049621582 350.1445922851562 121.9506454467773 352.9303894042969 C 119.1589508056641 355.7157592773438 115.4475021362305 357.2496948242188 111.5000991821289 357.2496948242188 C 107.5522994995117 357.2496948242188 103.8406524658203 355.7157592773438 101.0487976074219 352.9304504394531 C 98.25630187988281 350.1445922851562 96.71839904785156 346.4404602050781 96.71839904785156 342.5003662109375 C 96.71839904785156 338.5599975585938 98.25630187988281 334.8555908203125 101.0487518310547 332.0696411132812 C 103.8404998779297 329.2842102050781 107.5522003173828 327.7502136230469 111.5000991821289 327.7502136230469 M 44.54999923706055 21.50000190734863 L 179.7021026611328 21.50000190734863 C 182.8070526123047 21.50000190734863 185.8193054199219 22.10830307006836 188.6551055908203 23.30790328979492 C 191.3934020996094 24.46590232849121 193.8529968261719 26.12425231933594 195.9655456542969 28.23675346374512 C 198.077392578125 30.34770202636719 199.7357940673828 32.80710220336914 200.8948059082031 35.5467529296875 C 202.0943450927734 38.3847541809082 202.7026062011719 41.39695358276367 202.7026062011719 44.49960327148438 L 202.7026062011719 296.7498474121094 C 202.7026062011719 299.8533935546875 202.0943450927734 302.8656005859375 200.8947448730469 305.7027893066406 C 199.7366943359375 308.4411010742188 198.0783538818359 310.9007568359375 195.9656982421875 313.0133972167969 C 193.8529510498047 315.1261596679688 191.3932952880859 316.7845153808594 188.6551971435547 317.9424133300781 C 185.8194427490234 319.1420593261719 182.8071441650391 319.7503051757812 179.7021026611328 319.7503051757812 L 44.54999923706055 319.7503051757812 C 41.44499969482422 319.7503051757812 38.43269729614258 319.1420593261719 35.59700012207031 317.9424438476562 C 32.85879898071289 316.7845153808594 30.39914894104004 315.1261596679688 28.28639984130859 313.0133972167969 C 26.1746997833252 310.9017028808594 24.51664924621582 308.4420471191406 23.3583984375 305.7030639648438 C 22.15869903564453 302.8681640625 21.55039978027344 299.8558654785156 21.55039978027344 296.7498474121094 L 21.55039978027344 44.49960327148438 C 21.55039978027344 41.39450073242188 22.15869903564453 38.3822021484375 23.35834884643555 35.54650115966797 C 24.51759910583496 32.80610275268555 26.17569923400879 30.34670257568359 28.28639984130859 28.23690223693848 C 30.39909934997559 26.12425231933594 32.85869979858398 24.46590232849121 35.59690093994141 23.30795288085938 C 38.43280029296875 22.10830307006836 41.44504928588867 21.50000190734863 44.54999923706055 21.50000190734863 M 178.0001983642578 375.0003051757812 L 45 375.0003051757812 C 38.9245491027832 375.0003051757812 33.03104782104492 373.810546875 27.48329925537109 371.4642028808594 C 22.12439918518066 369.1969604492188 17.31189918518066 365.9520874023438 13.17959880828857 361.8197937011719 C 9.04689884185791 357.6871032714844 5.802349090576172 352.8746032714844 3.536099195480347 347.51611328125 C 1.189749240875244 341.9684143066406 -8.178710686479462e-07 336.0751953125 -8.178710686479462e-07 330.0003051757812 L -8.178710686479462e-07 45.00000381469727 C -8.178710686479462e-07 38.92510223388672 1.189749240875244 33.03195190429688 3.536099195480347 27.48420333862305 C 5.802349090576172 22.12570190429688 9.04689884185791 17.31325340270996 13.17959880828857 13.18050289154053 C 17.31189918518066 9.048202514648438 22.12439918518066 5.803352355957031 27.48329925537109 3.536102533340454 C 33.03104782104492 1.189752578735352 38.9245491027832 2.587890548966243e-06 45 2.587890548966243e-06 L 178.0001983642578 2.587890548966243e-06 C 184.0751037597656 2.587890548966243e-06 189.9682922363281 1.189752578735352 195.5160064697266 3.536102533340454 C 200.875 5.803402423858643 205.6874542236328 9.048253059387207 209.8197021484375 13.18050289154053 C 213.9524993896484 17.31335258483887 217.1970977783203 22.12580299377441 219.4632415771484 27.48420333862305 C 221.8101959228516 33.03120422363281 223.0001983642578 38.92440414428711 223.0001983642578 45.00000381469727 L 223.0001983642578 330.0003051757812 C 223.0001983642578 336.0759582519531 221.8101959228516 341.9691162109375 219.4632415771484 347.51611328125 C 217.1970977783203 352.87451171875 213.9524993896484 357.68701171875 209.8197021484375 361.8197937011719 C 205.6874542236328 365.9520568847656 200.875 369.1969604492188 195.5160064697266 371.4642028808594 C 189.9682922363281 373.810546875 184.0751037597656 375.0003051757812 178.0001983642578 375.0003051757812 Z M 111.5000991821289 328.7502136230469 C 107.8189010620117 328.7502136230469 104.3580017089844 330.1805114746094 101.7550506591797 332.7775573730469 C 99.15194702148438 335.3746032714844 97.71839904785156 338.8275146484375 97.71839904785156 342.5003662109375 C 97.71839904785156 346.1729125976562 99.15194702148438 349.6256103515625 101.7550506591797 352.2225036621094 C 104.3581008911133 354.8194580078125 107.8189468383789 356.2496948242188 111.5000991821289 356.2496948242188 C 115.1808471679688 356.2496948242188 118.6414489746094 354.8194580078125 121.2443466186523 352.2225036621094 C 123.8473968505859 349.6256103515625 125.2808990478516 346.1729125976562 125.2808990478516 342.5003662109375 C 125.2808990478516 338.8276062011719 123.8473968505859 335.3746032714844 121.2443466186523 332.7775573730469 C 118.6415023803711 330.1805114746094 115.1809005737305 328.7502136230469 111.5000991821289 328.7502136230469 Z M 44.54999923706055 22.50000190734863 C 41.57965087890625 22.50000190734863 38.69844818115234 23.08170318603516 35.98649978637695 24.22895240783691 C 33.36750030517578 25.33650207519531 31.01469993591309 26.92285346984863 28.99349975585938 28.94400215148926 C 26.9742488861084 30.96240234375 25.38814926147461 33.31490325927734 24.27934837341309 35.93610382080078 C 23.13209915161133 38.64790344238281 22.55039978027344 41.52910232543945 22.55039978027344 44.49960327148438 L 22.55039978027344 296.7498474121094 C 22.55039978027344 299.72119140625 23.13209915161133 302.6024169921875 24.27934837341309 305.3132934570312 C 25.38724899291992 307.9332885742188 26.97329902648926 310.2861022949219 28.99349975585938 312.3063049316406 C 31.01469993591309 314.3275146484375 33.36750030517578 315.9139099121094 35.98649978637695 317.0213928222656 C 38.69834899902344 318.1686096191406 41.57949829101562 318.7503051757812 44.54999923706055 318.7503051757812 L 179.7021026611328 318.7503051757812 C 182.6725921630859 318.7503051757812 185.5538024902344 318.1686096191406 188.2655944824219 317.0213928222656 C 190.8845977783203 315.9139099121094 193.2373962402344 314.3275146484375 195.2586059570312 312.3063049316406 C 197.2798004150391 310.2850952148438 198.8661499023438 307.9323120117188 199.9736938476562 305.3132934570312 C 201.1208953857422 302.60009765625 201.7026062011719 299.7189636230469 201.7026062011719 296.7498474121094 L 201.7026062011719 44.49960327148438 C 201.7026062011719 41.53140258789062 201.1208953857422 38.65020370483398 199.9736938476562 35.93610382080078 C 198.8652496337891 33.31585311889648 197.2788543701172 30.96340179443359 195.2586059570312 28.94400215148926 C 193.2373962402344 26.92285346984863 190.8845977783203 25.33650207519531 188.2655944824219 24.22895240783691 C 185.5536499023438 23.08170318603516 182.6724548339844 22.50000190734863 179.7021026611328 22.50000190734863 L 44.54999923706055 22.50000190734863 Z" stroke="none" fill="#707070"/>
  </g>
</svg>
