<svg xmlns="http://www.w3.org/2000/svg" width="272.623" height="347.656" viewBox="0 0 272.623 347.656">
  <path id="Paper_letter" data-name="Paper letter" d="M240.123,347.656H32.5A32.473,32.473,0,0,1,0,315.156V32.5A32.473,32.473,0,0,1,32.5,0H240.123a32.474,32.474,0,0,1,32.5,32.5V315.156a32.473,32.473,0,0,1-32.5,32.5ZM22.006,293.882a9.511,9.511,0,0,0-9.5,9.5v4.761a9.511,9.511,0,0,0,9.5,9.5H214.35a9.511,9.511,0,0,0,9.5-9.5v-4.761a9.511,9.511,0,0,0-9.5-9.5Zm0-52.523a9.511,9.511,0,0,0-9.5,9.5v4.761a9.511,9.511,0,0,0,9.5,9.5H251.868a9.511,9.511,0,0,0,9.5-9.5v-4.761a9.51,9.51,0,0,0-9.5-9.5Zm0-52.523a9.511,9.511,0,0,0-9.5,9.5V203.1a9.511,9.511,0,0,0,9.5,9.5H96.8a9.511,9.511,0,0,0,9.5-9.5v-4.761a9.511,9.511,0,0,0-9.5-9.5Zm0-52.524a9.511,9.511,0,0,0-9.5,9.5v4.76a9.511,9.511,0,0,0,9.5,9.5H251.868a9.511,9.511,0,0,0,9.5-9.5v-4.76a9.511,9.511,0,0,0-9.5-9.5Zm0-52.523a9.511,9.511,0,0,0-9.5,9.5v4.761a9.511,9.511,0,0,0,9.5,9.5H243.113a9.511,9.511,0,0,0,9.5-9.5V93.288a9.511,9.511,0,0,0-9.5-9.5Zm0-52.524a9.511,9.511,0,0,0-9.5,9.5v4.76a9.511,9.511,0,0,0,9.5,9.5H96.8a9.511,9.511,0,0,0,9.5-9.5v-4.76a9.511,9.511,0,0,0-9.5-9.5Z" fill="#fff"/>
</svg>
